<svg width="55" height="56" viewBox="0 0 55 56" fill="none" xmlns="http://www.w3.org/2000/svg">
<path d="M47.4288 0.24657C47.0127 -0.116605 46.381 -0.0737199 46.0178 0.34236L40.0995 7.12277C39.7364 7.53885 39.7792 8.17056 40.1953 8.53374C40.6114 8.89691 41.2431 8.85402 41.6063 8.43794L46.867 2.41091L52.894 7.6716C53.3101 8.03478 53.9418 7.99189 54.305 7.57581C54.6682 7.15973 54.6253 6.52802 54.2092 6.16485L47.4288 0.24657ZM0.562776 55.4979C11.3922 54.8167 19.9491 53.6614 26.6384 51.6526C33.3407 49.6398 38.2308 46.7514 41.65 42.5663C45.0654 38.3857 46.927 33.0161 47.7728 26.2038C48.6174 19.4007 48.4578 11.0801 47.7689 0.932212L45.7735 1.06768C46.4608 11.1907 46.608 19.3532 45.7881 25.9574C44.9693 32.5523 43.195 37.5141 40.1012 41.3009C37.0111 45.0833 32.5187 47.7984 26.0631 49.7371C19.5945 51.6797 11.2183 52.8237 0.437225 53.5019L0.562776 55.4979Z" fill="white"/>
</svg>
