<svg width="55" height="56" viewBox="0 0 55 56" fill="none" xmlns="http://www.w3.org/2000/svg">
<path d="M7.13324 0.24657C7.54932 -0.116605 8.18103 -0.0737199 8.5442 0.34236L14.4625 7.12277C14.8257 7.53885 14.7828 8.17056 14.3667 8.53374C13.9506 8.89691 13.3189 8.85402 12.9557 8.43794L7.69503 2.41091L1.668 7.6716C1.25192 8.03478 0.620207 7.99189 0.257032 7.57581C-0.106143 7.15973 -0.0632551 6.52802 0.352826 6.16485L7.13324 0.24657ZM53.9992 55.4979C43.1699 54.8167 34.6129 53.6614 27.9237 51.6526C21.2213 49.6398 16.3312 46.7514 12.912 42.5663C9.49657 38.3857 7.63497 33.0161 6.7892 26.2038C5.94458 19.4007 6.10416 11.0801 6.79312 0.932212L8.78852 1.06768C8.10126 11.1907 7.95403 19.3532 8.77396 25.9574C9.59274 32.5523 11.367 37.5141 14.4608 41.3009C17.5509 45.0833 22.0433 47.7984 28.4989 49.7371C34.9675 51.6797 43.3437 52.8237 54.1248 53.5019L53.9992 55.4979Z" fill="white"/>
</svg>
