<svg width="74" height="114" viewBox="0 0 74 114" fill="none" xmlns="http://www.w3.org/2000/svg">
<path d="M42 5C42 2.23858 39.7614 -1.20706e-07 37 0C34.2386 1.20706e-07 32 2.23858 32 5L42 5ZM33.4645 112.536C35.4171 114.488 38.5829 114.488 40.5355 112.536L72.3553 80.7157C74.308 78.7631 74.308 75.5973 72.3553 73.6447C70.4027 71.692 67.2369 71.692 65.2843 73.6447L37 101.929L8.71573 73.6447C6.76311 71.692 3.59729 71.692 1.64466 73.6447C-0.307957 75.5973 -0.307957 78.7631 1.64466 80.7157L33.4645 112.536ZM32 5L32 109L42 109L42 5L32 5Z" fill="white"/>
</svg>
