<svg width="30" height="31" viewBox="0 0 30 31" fill="none" xmlns="http://www.w3.org/2000/svg">
<circle cx="15" cy="16" r="14.25" fill="white" stroke="black" stroke-width="1.5"/>
<path d="M2.5 10C10.1 13.2 12.2571 18.1072 9.5 17.5C6.74288 16.8928 9.5 18.5 8.5 19C7.5 19.5 10 19.5 11.5 20C13 20.5 10.5 18 12.5 17.5C14.5 17 16 19.5 15 20C14 20.5 12.5 23 13.5 23C14.5 23 17.5 25.5 15 25.5C12.5 25.5 11 24.5 11 25.5C11 26.5 10.5 26.5 9.5 26.5C8.5 26.5 11.5 28.5 11.5 28.5L11 29.5" stroke="black"/>
<path d="M26.5001 8C24.1001 8.8 23 7.5 22.5001 9C22.0002 10.5 22.5001 12.5 21.5001 11.5C20.5001 10.5 19.0001 11.5 18.0001 12.5C17.0001 13.5 19.0001 13.5 20.0001 15.5C21.0001 17.5 20.0001 13 21.0001 15C22.0001 17 18.0001 16.5 19.0001 17.5C20.0001 18.5 21.0001 17.5 21.0001 17.5C21.0001 17.5 22.5001 18.5 23.5001 20C24.5001 21.5 25.0001 17.5 26.0001 15C27.0001 12.5 28.5001 17.5 28.5001 17.5" stroke="black"/>
<path d="M10.5 9.75C9.1875 9.75001 7 7.25474 7 3.92776C7 0.600769 10.5 1.01663 10.5 1.01663C10.5 1.01663 14 0.600769 14 3.92776C14 7.25474 11.8125 9.74999 10.5 9.75Z" fill="#595959" stroke="black" stroke-width="0.6"/>
<circle cx="10.5" cy="4.5" r="1.5" fill="white" stroke="black" stroke-width="0.5"/>
<path d="M21.5 24.75C20.1875 24.75 18 22.2547 18 18.9278C18 15.6008 21.5 16.0166 21.5 16.0166C21.5 16.0166 25 15.6008 25 18.9278C25 22.2547 22.8125 24.75 21.5 24.75Z" fill="#595959" stroke="black" stroke-width="0.6"/>
<circle cx="21.5" cy="19.5" r="1.5" fill="white" stroke="black" stroke-width="0.5"/>
</svg>
